<svg width="24" height="24" viewBox="0 0 24 24" fill="none" xmlns="http://www.w3.org/2000/svg">
<path fill-rule="evenodd" clip-rule="evenodd" d="M14.2131 3.73215C14.573 3.73215 14.8652 4.02428 14.8652 4.38423C14.8652 4.74417 14.573 5.0363 14.2131 5.0363H7.89405C5.71351 5.0363 4.30415 6.53521 4.30415 8.8566V15.8834C4.30415 18.2352 5.6796 19.6958 7.89405 19.6958H15.3747C17.5552 19.6958 18.9646 18.1995 18.9646 15.8834V9.76342C18.9646 9.40348 19.2567 9.11135 19.6166 9.11135C19.9766 9.11135 20.2687 9.40348 20.2687 9.76342V15.8834C20.2687 18.9438 18.3021 21 15.3747 21H7.89405C4.96666 21 3 18.9438 3 15.8834V8.8566C3 5.79184 4.96666 3.73215 7.89405 3.73215H14.2131ZM16.0523 9.67022C16.3375 9.89106 16.3896 10.3006 16.1688 10.5849L13.6214 13.8713C13.5153 14.0087 13.3588 14.0983 13.1866 14.1191C13.0128 14.1426 12.8406 14.0922 12.7032 13.9852L10.2532 12.0603L8.05263 14.9199C7.92396 15.0868 7.73094 15.1746 7.53532 15.1746C7.39621 15.1746 7.25623 15.1303 7.13799 15.0398C6.85281 14.8199 6.79891 14.4104 7.01888 14.1252L9.6211 10.7431C9.72717 10.6049 9.88453 10.5153 10.0567 10.4936C10.2323 10.471 10.4045 10.5197 10.541 10.6283L12.9928 12.5541L15.1377 9.78672C15.3585 9.50068 15.7671 9.44764 16.0523 9.67022ZM18.6215 3C19.903 3 20.9446 4.04158 20.9446 5.32313C20.9446 6.60468 19.903 7.64713 18.6215 7.64713C17.3408 7.64713 16.2984 6.60468 16.2984 5.32313C16.2984 4.04158 17.3408 3 18.6215 3ZM18.6215 4.30415C18.0598 4.30415 17.6025 4.76061 17.6025 5.32313C17.6025 5.88479 18.0598 6.34298 18.6215 6.34298C19.1831 6.34298 19.6405 5.88479 19.6405 5.32313C19.6405 4.76061 19.1831 4.30415 18.6215 4.30415Z" fill="#EAC666"/>
</svg>
