<svg width="24" height="24" viewBox="0 0 24 24" fill="none" xmlns="http://www.w3.org/2000/svg">
<path fill-rule="evenodd" clip-rule="evenodd" d="M7.15375 18.9519C7.86775 18.9519 8.44875 19.5319 8.44875 20.2459C8.44875 20.9599 7.86775 21.5409 7.15375 21.5409C6.43975 21.5409 5.85974 20.9599 5.85974 20.2459C5.85974 19.5319 6.43975 18.9519 7.15375 18.9519ZM18.434 18.9519C19.149 18.9519 19.73 19.5319 19.73 20.2459C19.73 20.9599 19.149 21.5409 18.434 21.5409C17.72 21.5409 17.14 20.9599 17.14 20.2459C17.14 19.5319 17.72 18.9519 18.434 18.9519ZM2.87795 2.00949L4.95795 2.36949C5.29294 2.42849 5.54795 2.70649 5.57695 3.04649L5.81195 5.84749L6.6858 5.84787C6.8284 5.84793 6.96948 5.84799 7.10907 5.84806L8.71337 5.84882C8.84126 5.84888 8.96771 5.84895 9.09274 5.84901L10.8641 5.84998C10.9754 5.85005 11.0854 5.85011 11.194 5.85018L12.4353 5.85097C12.5336 5.85104 12.6307 5.8511 12.7266 5.85117L13.8184 5.85197C13.9046 5.85204 13.9896 5.85211 14.0735 5.85218L15.0254 5.853C15.1003 5.85306 15.1741 5.85313 15.2468 5.8532L15.8725 5.85382C15.9388 5.85389 16.0042 5.85396 16.0685 5.85403L16.7931 5.85487C16.8496 5.85494 16.9052 5.85501 16.9598 5.85509L17.5716 5.85594C17.619 5.85601 17.6656 5.85608 17.7113 5.85615L18.1001 5.8568C18.1408 5.85688 18.1808 5.85695 18.2199 5.85702L18.653 5.8579C18.6861 5.85797 18.7185 5.85805 18.7502 5.85812L19.0168 5.85879C19.0444 5.85886 19.0713 5.85894 19.0976 5.85901L19.3834 5.85991C19.4048 5.85999 19.4256 5.86006 19.4459 5.86014L19.6137 5.86082C19.6307 5.8609 19.6473 5.86098 19.6633 5.86105L19.833 5.86198C19.8454 5.86205 19.8573 5.86213 19.8688 5.86221L19.9613 5.86291C19.9704 5.86299 19.9791 5.86307 19.9875 5.86315L20.0541 5.86386C20.0606 5.86394 20.0667 5.86402 20.0726 5.8641L20.1179 5.86481C20.1221 5.86489 20.1262 5.86497 20.13 5.86505L20.1586 5.86578C20.1613 5.86586 20.1637 5.86594 20.166 5.86602L20.1868 5.867L20.1903 5.86725C20.2 5.86816 20.2029 5.86849 20.2029 5.86849C20.7599 5.94949 21.2499 6.24049 21.5839 6.68849C21.9179 7.13549 22.0579 7.68649 21.9779 8.23849L21.0289 14.7965C20.8499 16.0445 19.7659 16.9855 18.5059 16.9855H7.58495C6.26795 16.9855 5.15295 15.9575 5.04594 14.6425L4.12995 3.74849L2.62295 3.48849C2.21395 3.41649 1.94095 3.02949 2.01095 2.62049C2.08295 2.21149 2.47795 1.94549 2.87795 2.00949ZM6.48518 7.34783L5.93795 7.34749L6.54095 14.5195C6.58495 15.0715 7.03595 15.4855 7.58695 15.4855H18.5039C19.0249 15.4855 19.4699 15.0975 19.5439 14.5825L20.4939 8.02349C20.5159 7.86749 20.4769 7.71149 20.3819 7.58549C20.2879 7.45849 20.1499 7.37649 19.9939 7.35449C19.9867 7.35477 19.9694 7.35502 19.9426 7.35525L19.8338 7.35587C19.8111 7.35596 19.786 7.35605 19.7588 7.35613L19.1923 7.35699C19.1445 7.35703 19.0948 7.35706 19.0433 7.35708L17.7113 7.35703C17.637 7.357 17.5612 7.35697 17.4842 7.35693L15.9641 7.35601C15.873 7.35594 15.7809 7.35587 15.6879 7.3558L14.8278 7.35511C14.7298 7.35503 14.6311 7.35495 14.5317 7.35486L13.6206 7.35406C13.5177 7.35397 13.4144 7.35388 13.3105 7.35378L12.683 7.35321C12.5777 7.35311 12.4721 7.35301 12.3662 7.35291L11.4085 7.35202C11.3018 7.35192 11.1949 7.35182 11.0881 7.35172L10.4474 7.35112C10.3408 7.35102 10.2343 7.35093 10.128 7.35083L9.49278 7.35025C9.38744 7.35016 9.28241 7.35006 9.17774 7.34997L8.24723 7.34917C8.1453 7.34908 8.04393 7.349 7.94316 7.34892L6.76724 7.34802C6.67234 7.34796 6.5783 7.34789 6.48518 7.34783ZM16.8978 9.54379C17.3118 9.54379 17.6478 9.87979 17.6478 10.2938C17.6478 10.7078 17.3118 11.0438 16.8978 11.0438H14.1258C13.7108 11.0438 13.3758 10.7078 13.3758 10.2938C13.3758 9.87979 13.7108 9.54379 14.1258 9.54379H16.8978Z" fill="#EAC666"/>
</svg>
