<svg width="19" height="270" viewBox="0 0 19 270" fill="none" xmlns="http://www.w3.org/2000/svg">
<line opacity="0.25" x1="10" y1="61.5" x2="10" y2="269.5" stroke="white"/>
<g opacity="0.25">
<mask id="mask0_1_141" style="mask-type:alpha" maskUnits="userSpaceOnUse" x="0" y="0" width="19" height="30">
<rect x="0.401367" y="0.885498" width="18.1966" height="29.1145" fill="white"/>
</mask>
<g mask="url(#mask0_1_141)">
<path d="M9.49964 0.885498C4.48283 0.885498 0.401367 5.00959 0.401367 10.0786V20.8069C0.401367 25.8761 4.48283 30 9.49964 30C14.5165 30 18.5979 25.8761 18.5979 20.8069V10.0786C18.5979 5.00959 14.5165 0.885498 9.49964 0.885498ZM16.7783 21.1168V20.8069C16.7783 24.862 13.5129 28.1614 9.49964 28.1614C5.48635 28.1614 2.22104 24.862 2.22104 20.8069V21.1168V15.588V10.0786C2.22104 6.02263 5.48635 2.72414 9.49964 2.72414C13.5129 2.72414 16.7783 6.02263 16.7783 10.0786V15.588V21.1168Z" fill="white"/>
<path d="M9.49959 14.8635C8.87147 14.8635 8.3623 14.3543 8.3623 13.7262V10.5418C8.3623 9.9137 8.87147 9.40454 9.49959 9.40454C10.1276 9.40454 10.6369 9.9137 10.6369 10.5418V13.7262C10.6369 14.3543 10.1276 14.8635 9.49959 14.8635Z" fill="white"/>
</g>
</g>
</svg>
